<svg xmlns="http://www.w3.org/2000/svg" xmlns:xlink="http://www.w3.org/1999/xlink" viewBox="0 0 153.6 29.1"><style type="text/css">.st0{fill:#FFF}</style><g><path class="st0" d="M25.3,18c0-0.1,0.1-0.1,0.1-0.1h8.9c0.1,0,0.1,0.1,0.1,0.1c0,0.2,0,1.4-0.1,2.2c-0.2,2.8-0.8,4.2-1.9,5.5
		c-1.4,1.7-3,2.5-5.5,2.9c-3,0.4-7.4,0.5-9.6,0.5c-1.6,0-6.9-0.2-9-0.5c-2.6-0.3-4.5-1.3-5.8-2.8c-1.3-1.6-2-3.4-2.3-5.6
		C0.1,18.8,0,16.2,0,14.9c0-1.5,0.2-4.6,0.3-5.9c0.2-2.5,0.9-4.2,2.2-5.7C4.2,1.4,6,0.8,8.3,0.5c1.5-0.2,5.4-0.5,9-0.5
		s7.7,0.3,9.3,0.4c2.3,0.3,3.8,1,5.2,2.5c1.3,1.5,1.9,3.2,2.2,5.4c0.1,0.9,0.1,1.8,0.1,2.4c0,0.1-0.1,0.1-0.1,0.1L25,10.7
		c-0.1,0-0.1-0.1-0.1-0.1c0,0-0.1-0.9-0.2-1.3c-0.2-0.8-0.6-1.5-2-1.6c-1.3-0.2-4.3-0.2-5.5-0.2c-1.3,0-4.1,0.1-5.6,0.2
		c-1.5,0.1-2.3,0.8-2.4,1.7c-0.2,1.1-0.3,3.2-0.3,4.9c0,1.7,0.1,3.5,0.2,4.9c0.1,1.3,0.9,2.1,2.4,2.2c1.5,0.1,4.2,0.2,5.6,0.2
		c1.2,0,4-0.1,5.5-0.2c1.1-0.1,1.9-0.6,2.3-1.8C25.2,19.1,25.3,18,25.3,18z"/><path class="st0" d="M70.8,28.4L59.2,0.6c-0.1-0.1-0.1-0.1-0.1-0.1H46.4c-0.1,0-0.1,0-0.1,0.1L34.5,28.4l0,0c0,0.1,0.1,0.1,0.1,0.1
		h9.3c0.1,0,0.1-0.1,0.1-0.1l1.8-4.9c0-0.1,0.1-0.1,0.1-0.1h13.6c0.1,0,0.1,0,0.1,0.1l1.8,4.9c0,0.1,0.1,0.1,0.1,0.1L70.8,28.4
		C70.8,28.5,70.8,28.5,70.8,28.4L70.8,28.4z M57.5,17.6H48c-0.1,0-0.1-0.1-0.1-0.1v-0.1L52,6.7C52,6.7,52,6.7,52,6.7h1.3
		c0.1,0,0.1,0,0.1,0.1l4,10.7v0.1C57.6,17.5,57.6,17.6,57.5,17.6z"/><path class="st0" d="M115.2,0.8C115.2,0.7,115.2,0.7,115.2,0.8l-8.8-0.1c-0.1,0-0.1,0.1-0.1,0.1v27.5c0,0.1,0.1,0.1,0.1,0.1h8.8
		c0.1,0,0.1-0.1,0.1-0.1V0.8L115.2,0.8z"/><path class="st0" d="M80,20c-0.1,1.5,0.7,2.3,2,2.4c0.9,0.1,3.5,0.2,5.2,0.2c1.9,0,3.1-0.1,4.5-0.1C93,22.3,94,21.7,94,20
		c0-1.2-0.6-2.2-2.2-2.3c-1.9-0.2-9.6-0.4-13.8-0.8c-4.1-0.3-5.8-3.1-6.2-4.1c-0.4-1-0.6-1.9-0.6-4c0-1.7,0.3-3.2,0.8-4.3
		c0.5-1.1,1.6-2.5,3.3-3.3c2-1,6.5-1.1,11.1-1.1c4.6,0,9,0.2,11,1.1c1.7,0.8,2.8,2.2,3.3,3.3c0.5,1.1,0.9,2.9,0.9,4.5
		c0,0.1-0.1,0.1-0.1,0.1h-8.7C92.9,9,92.9,9,92.9,9c0-0.1,0-0.5,0-0.6c0-0.9-0.6-1.6-1.5-1.7c-0.5-0.1-3.2-0.2-4.6-0.2
		c-1.3,0-4.1,0.1-5.3,0.2c-1.2,0.1-1.8,0.9-1.8,2.2c0,1.2,0.6,2,1.8,2c1.1,0.1,11.5,0.5,13.4,0.7c3.5,0.3,5.3,1,6.8,3.2
		c1,1.5,1.1,3.1,1.2,5.2c0.1,3.4-0.9,5-1.8,6.1c-1,1-2.2,2-4.5,2.4c-2.4,0.4-6,0.4-9.9,0.4c-3.8,0-7.6-0.2-9.6-0.6
		c-3.2-0.6-5.8-3.3-5.8-8.3c0-0.1,0.1-0.1,0.1-0.1L80,20C79.9,19.9,80,20,80,20z"/><path class="st0" d="M153.1,7c-0.6-3-3.5-5.8-6.7-6.3c-2.4-0.4-6.1-0.6-9.9-0.6c-3.8,0-7.5,0.2-9.8,0.6c-3.2,0.5-6,3.4-6.7,6.3
		c-0.4,1.9-0.5,6-0.5,7.4c0,2.3,0.1,5.5,0.5,7.5c0.6,3.1,3.6,6,6.9,6.4c3.3,0.4,6,0.6,9.6,0.6c3.6,0,6.3-0.1,9.7-0.6
		c3.3-0.5,6.2-3.3,6.9-6.4c0.4-2,0.5-5.2,0.5-7.5C153.6,13,153.5,8.9,153.1,7z M144.4,19.1c-0.1,1.3-1,2-2.2,2.2
		c-1.5,0.1-4.4,0.2-5.8,0.2l0,0l0,0l0,0c-1.3,0-3.9-0.1-5.4-0.2c-1.6-0.1-2.3-1-2.4-2.1c-0.2-1.5-0.3-3.3-0.3-5.1
		c0-1.7,0.2-4.1,0.4-4.8c0.3-0.9,1.1-1.6,2.3-1.6c1.5-0.1,4.2-0.2,5.6-0.2c0,0,4,0.1,5.5,0.2c1.1,0.1,1.9,0.8,2.2,1.6
		c0.2,1,0.3,3.4,0.3,5.1C144.6,16.1,144.5,17.7,144.4,19.1z"/></g></svg>