<svg xmlns="http://www.w3.org/2000/svg" xmlns:xlink="http://www.w3.org/1999/xlink" viewBox="0 0 216.1 34.8"><style type="text/css">.st0{fill:#FFFFFF}</style><g transform="matrix(1.25 0 0 -1.25 -.32461 241.65)"><g transform="scale(.24)"><path id="path2844" class="st0" d="M95.5,705.2l-15.2-15.4H16.2L1.1,705v85.2l15,15.3h64.2l15.1-15.4v-21.5H67.2v8.1h-38v-58.2h38
			v15.1H51.1v27.2h44.4V705.2"/><path id="path2846" class="st0" d="M287.3,689.5v0.3h-0.2L287.3,689.5"/><path id="path2848" class="st0" d="M381.6,805.5h-28.1v-44.6h-38v44.6h-28.3l0.2-115.7h28.2v43.9h38v-43.9h28.2L381.6,805.5"/><path id="path2850" class="st0" d="M688.3,805.5h32.9l-41.5-58l41.7-57.7H688l-32.8,45.6v-45.6H627l-0.2,115.7h28.3v-46.1
			L688.3,805.5"/><path id="path2852" class="st0" d="M186.3,733.8l51.3-0.1v-15.1h-38v8.3h-28.2v-21.8l15.1-15.2h64.1l15.2,15.4v40.6L250.9,761
			h-51.2l-0.1,15.8h38v-8.1h28.2v21.5l-15.2,15.3h-64.2l-15-15.3v-41.1L186.3,733.8"/><path id="path2854" class="st0" d="M608.8,726.8v-21.6l-15.2-15.4h-64.1L514.4,705v85.2l15,15.3h64.2l15.1-15.4v-21.2h-28.2v7.9
			h-38v-58.2h38v8.3L608.8,726.8"/><path id="path2856" class="st0" d="M466.4,718.6h-38v58.2h38V718.6z M494.6,790.1l-15.1,15.4h-64.2l-15-15.3V705l15.1-15.2h64.1
			l15.2,15.4v84.9"/><path id="path2858" class="st0" d="M112.6,734.8h42.7v26.4h-42.7C112.6,761.2,112.6,734.8,112.6,734.8z"/></g></g></svg>